<?xml version="1.0" encoding="UTF-8" standalone="no"?>
<!DOCTYPE svg PUBLIC "-//W3C//DTD SVG 1.1//EN"
 "http://www.w3.org/Graphics/SVG/1.1/DTD/svg11.dtd">
<!-- Generated by graphviz version 2.40.1 (20161225.0304)
 -->
<!-- Title: dependencies Pages: 1 -->
<svg width="981pt" height="284pt"
 viewBox="0.00 0.00 981.00 284.00" xmlns="http://www.w3.org/2000/svg" xmlns:xlink="http://www.w3.org/1999/xlink">
<g id="graph0" class="graph" transform="scale(1 1) rotate(0) translate(4 280)">
<title>dependencies</title>
<polygon fill="#ffffff" stroke="transparent" points="-4,4 -4,-280 977,-280 977,4 -4,4"/>
<text text-anchor="start" x="465.5091" y="-42.4" font-family="sans-serif" font-weight="bold" font-size="14.00" fill="#000000">Legend</text>
<polygon fill="#ffffb3" stroke="transparent" points="252.5,-10 252.5,-30 272.5,-30 272.5,-10 252.5,-10"/>
<text text-anchor="start" x="276.129" y="-15.4" font-family="sans-serif" font-size="14.00" fill="#000000"> &#160;Declarations</text>
<polygon fill="#8dd3c7" stroke="transparent" points="365.5,-10 365.5,-30 385.5,-30 385.5,-10 365.5,-10"/>
<text text-anchor="start" x="389.2251" y="-15.4" font-family="sans-serif" font-size="14.00" fill="#000000"> &#160;Module</text>
<polygon fill="#80b1d3" stroke="transparent" points="451.5,-10 451.5,-30 471.5,-30 471.5,-10 451.5,-10"/>
<text text-anchor="start" x="475.2812" y="-15.4" font-family="sans-serif" font-size="14.00" fill="#000000"> &#160;Bootstrap</text>
<polygon fill="#fdb462" stroke="transparent" points="548.5,-10 548.5,-30 568.5,-30 568.5,-10 548.5,-10"/>
<text text-anchor="start" x="572.1732" y="-15.4" font-family="sans-serif" font-size="14.00" fill="#000000"> &#160;Providers</text>
<polygon fill="#fb8072" stroke="transparent" points="644.5,-10 644.5,-30 664.5,-30 664.5,-10 644.5,-10"/>
<text text-anchor="start" x="668.2258" y="-15.4" font-family="sans-serif" font-size="14.00" fill="#000000"> &#160;Exports</text>
<g id="clust1" class="cluster">
<title>cluster_CoreModule</title>
<polygon fill="none" stroke="#000000" stroke-dasharray="1,5" points="8,-70 8,-268 965,-268 965,-70 8,-70"/>
</g>
<g id="clust3" class="cluster">
<title>cluster_CoreModule_imports</title>
<polygon fill="none" stroke="#000000" points="617,-78 617,-130 957,-130 957,-78 617,-78"/>
</g>
<g id="clust4" class="cluster">
<title>cluster_CoreModule_exports</title>
<polygon fill="none" stroke="#000000" points="461,-208 461,-260 711,-260 711,-208 461,-208"/>
</g>
<g id="clust6" class="cluster">
<title>cluster_CoreModule_providers</title>
<polygon fill="none" stroke="#000000" points="16,-78 16,-130 609,-130 609,-78 16,-78"/>
</g>
<!-- MaterialModule -->
<g id="node1" class="node">
<title>MaterialModule</title>
<polygon fill="#8dd3c7" stroke="#000000" points="949.4706,-122 946.4706,-126 925.4706,-126 922.4706,-122 842.5294,-122 842.5294,-86 949.4706,-86 949.4706,-122"/>
<text text-anchor="middle" x="896" y="-99.8" font-family="Times,serif" font-size="14.00" fill="#000000">MaterialModule</text>
</g>
<!-- CoreModule -->
<g id="node4" class="node">
<title>CoreModule</title>
<polygon fill="#8dd3c7" stroke="#000000" points="628.2619,-187 625.2619,-191 604.2619,-191 601.2619,-187 541.7381,-187 541.7381,-151 628.2619,-151 628.2619,-187"/>
<text text-anchor="middle" x="585" y="-164.8" font-family="Times,serif" font-size="14.00" fill="#000000">CoreModule</text>
</g>
<!-- MaterialModule&#45;&gt;CoreModule -->
<g id="edge1" class="edge">
<title>MaterialModule&#45;&gt;CoreModule</title>
<path fill="none" stroke="#000000" d="M896,-122.2843C896,-143.3211 896,-175 896,-175 896,-175 638.5707,-175 638.5707,-175"/>
<polygon fill="#000000" stroke="#000000" points="638.5707,-171.5001 628.5707,-175 638.5706,-178.5001 638.5707,-171.5001"/>
</g>
<!-- AlgoliaModule -->
<g id="node2" class="node">
<title>AlgoliaModule</title>
<polygon fill="#8dd3c7" stroke="#000000" points="824.5438,-122 821.5438,-126 800.5438,-126 797.5438,-122 723.4562,-122 723.4562,-86 824.5438,-86 824.5438,-122"/>
<text text-anchor="middle" x="774" y="-99.8" font-family="Times,serif" font-size="14.00" fill="#000000">AlgoliaModule</text>
</g>
<!-- AlgoliaModule&#45;&gt;CoreModule -->
<g id="edge2" class="edge">
<title>AlgoliaModule&#45;&gt;CoreModule</title>
<path fill="none" stroke="#000000" d="M774,-122.0225C774,-139.3734 774,-163 774,-163 774,-163 638.3604,-163 638.3604,-163"/>
<polygon fill="#000000" stroke="#000000" points="638.3605,-159.5001 628.3604,-163 638.3604,-166.5001 638.3605,-159.5001"/>
</g>
<!-- NlpModule -->
<g id="node3" class="node">
<title>NlpModule</title>
<polygon fill="#8dd3c7" stroke="#000000" points="705.0483,-122 702.0483,-126 681.0483,-126 678.0483,-122 624.9517,-122 624.9517,-86 705.0483,-86 705.0483,-122"/>
<text text-anchor="middle" x="665" y="-99.8" font-family="Times,serif" font-size="14.00" fill="#000000">NlpModule</text>
</g>
<!-- NlpModule&#45;&gt;CoreModule -->
<g id="edge3" class="edge">
<title>NlpModule&#45;&gt;CoreModule</title>
<path fill="none" stroke="#000000" d="M624.8112,-104C617.9655,-104 613.015,-104 613.015,-104 613.015,-104 613.015,-140.8939 613.015,-140.8939"/>
<polygon fill="#000000" stroke="#000000" points="609.5151,-140.8938 613.015,-150.8939 616.5151,-140.8939 609.5151,-140.8938"/>
</g>
<!-- MaterialModule  -->
<g id="node5" class="node">
<title>MaterialModule </title>
<polygon fill="#fb8072" stroke="#000000" points="703.4716,-252 592.5284,-252 592.5284,-216 703.4716,-216 703.4716,-252"/>
<text text-anchor="middle" x="648" y="-229.8" font-family="Times,serif" font-size="14.00" fill="#000000">MaterialModule </text>
</g>
<!-- CoreModule&#45;&gt;MaterialModule  -->
<g id="edge4" class="edge">
<title>CoreModule&#45;&gt;MaterialModule </title>
<path fill="none" stroke="#000000" stroke-dasharray="5,2" d="M610.5728,-187.1061C610.5728,-187.1061 610.5728,-205.991 610.5728,-205.991"/>
<polygon fill="#000000" stroke="#000000" points="607.0728,-205.9909 610.5728,-215.991 614.0728,-205.991 607.0728,-205.9909"/>
</g>
<!-- AlgoliaModule  -->
<g id="node6" class="node">
<title>AlgoliaModule </title>
<polygon fill="#fb8072" stroke="#000000" points="574.5428,-252 469.4572,-252 469.4572,-216 574.5428,-216 574.5428,-252"/>
<text text-anchor="middle" x="522" y="-229.8" font-family="Times,serif" font-size="14.00" fill="#000000">AlgoliaModule </text>
</g>
<!-- CoreModule&#45;&gt;AlgoliaModule  -->
<g id="edge5" class="edge">
<title>CoreModule&#45;&gt;AlgoliaModule </title>
<path fill="none" stroke="#000000" stroke-dasharray="5,2" d="M558.0703,-187.1061C558.0703,-187.1061 558.0703,-205.991 558.0703,-205.991"/>
<polygon fill="#000000" stroke="#000000" points="554.5704,-205.9909 558.0703,-215.991 561.5704,-205.991 554.5704,-205.9909"/>
</g>
<!-- SpeechToTextService -->
<g id="node7" class="node">
<title>SpeechToTextService</title>
<ellipse fill="#fdb462" stroke="#000000" cx="505" cy="-104" rx="96.1073" ry="18"/>
<text text-anchor="middle" x="505" y="-99.8" font-family="Times,serif" font-size="14.00" fill="#000000">SpeechToTextService</text>
</g>
<!-- SpeechToTextService&#45;&gt;CoreModule -->
<g id="edge6" class="edge">
<title>SpeechToTextService&#45;&gt;CoreModule</title>
<path fill="none" stroke="#000000" d="M571.4613,-117.1537C571.4613,-117.1537 571.4613,-140.6938 571.4613,-140.6938"/>
<polygon fill="#000000" stroke="#000000" points="567.9614,-140.6938 571.4613,-150.6938 574.9614,-140.6939 567.9614,-140.6938"/>
</g>
<!-- TextToSpeechService -->
<g id="node8" class="node">
<title>TextToSpeechService</title>
<ellipse fill="#fdb462" stroke="#000000" cx="294" cy="-104" rx="96.1073" ry="18"/>
<text text-anchor="middle" x="294" y="-99.8" font-family="Times,serif" font-size="14.00" fill="#000000">TextToSpeechService</text>
</g>
<!-- TextToSpeechService&#45;&gt;CoreModule -->
<g id="edge7" class="edge">
<title>TextToSpeechService&#45;&gt;CoreModule</title>
<path fill="none" stroke="#000000" d="M294,-122.0225C294,-139.3734 294,-163 294,-163 294,-163 531.4344,-163 531.4344,-163"/>
<polygon fill="#000000" stroke="#000000" points="531.4344,-166.5001 541.4344,-163 531.4343,-159.5001 531.4344,-166.5001"/>
</g>
<!-- EastereggService -->
<g id="node9" class="node">
<title>EastereggService</title>
<ellipse fill="#fdb462" stroke="#000000" cx="102" cy="-104" rx="78.125" ry="18"/>
<text text-anchor="middle" x="102" y="-99.8" font-family="Times,serif" font-size="14.00" fill="#000000">EastereggService</text>
</g>
<!-- EastereggService&#45;&gt;CoreModule -->
<g id="edge8" class="edge">
<title>EastereggService&#45;&gt;CoreModule</title>
<path fill="none" stroke="#000000" d="M102,-122.2843C102,-143.3211 102,-175 102,-175 102,-175 531.7119,-175 531.7119,-175"/>
<polygon fill="#000000" stroke="#000000" points="531.7119,-178.5001 541.7119,-175 531.7119,-171.5001 531.7119,-178.5001"/>
</g>
</g>
</svg>
