<?xml version="1.0" encoding="UTF-8" standalone="no"?>
<!DOCTYPE svg PUBLIC "-//W3C//DTD SVG 1.1//EN"
 "http://www.w3.org/Graphics/SVG/1.1/DTD/svg11.dtd">
<!-- Generated by graphviz version 2.40.1 (20161225.0304)
 -->
<!-- Title: dependencies Pages: 1 -->
<svg width="504pt" height="284pt"
 viewBox="0.00 0.00 504.00 284.00" xmlns="http://www.w3.org/2000/svg" xmlns:xlink="http://www.w3.org/1999/xlink">
<g id="graph0" class="graph" transform="scale(1 1) rotate(0) translate(4 280)">
<title>dependencies</title>
<polygon fill="#ffffff" stroke="transparent" points="-4,4 -4,-280 500,-280 500,4 -4,4"/>
<text text-anchor="start" x="227.0091" y="-42.4" font-family="sans-serif" font-weight="bold" font-size="14.00" fill="#000000">Legend</text>
<polygon fill="#ffffb3" stroke="transparent" points="14,-10 14,-30 34,-30 34,-10 14,-10"/>
<text text-anchor="start" x="37.629" y="-15.4" font-family="sans-serif" font-size="14.00" fill="#000000"> &#160;Declarations</text>
<polygon fill="#8dd3c7" stroke="transparent" points="127,-10 127,-30 147,-30 147,-10 127,-10"/>
<text text-anchor="start" x="150.7251" y="-15.4" font-family="sans-serif" font-size="14.00" fill="#000000"> &#160;Module</text>
<polygon fill="#80b1d3" stroke="transparent" points="213,-10 213,-30 233,-30 233,-10 213,-10"/>
<text text-anchor="start" x="236.7812" y="-15.4" font-family="sans-serif" font-size="14.00" fill="#000000"> &#160;Bootstrap</text>
<polygon fill="#fdb462" stroke="transparent" points="310,-10 310,-30 330,-30 330,-10 310,-10"/>
<text text-anchor="start" x="333.6732" y="-15.4" font-family="sans-serif" font-size="14.00" fill="#000000"> &#160;Providers</text>
<polygon fill="#fb8072" stroke="transparent" points="406,-10 406,-30 426,-30 426,-10 406,-10"/>
<text text-anchor="start" x="429.7258" y="-15.4" font-family="sans-serif" font-size="14.00" fill="#000000"> &#160;Exports</text>
<g id="clust1" class="cluster">
<title>cluster_CoreModule</title>
<polygon fill="none" stroke="#000000" stroke-dasharray="1,5" points="115,-70 115,-268 381,-268 381,-70 115,-70"/>
</g>
<g id="clust3" class="cluster">
<title>cluster_CoreModule_imports</title>
<polygon fill="none" stroke="#000000" points="127,-78 127,-130 369,-130 369,-78 127,-78"/>
</g>
<g id="clust4" class="cluster">
<title>cluster_CoreModule_exports</title>
<polygon fill="none" stroke="#000000" points="123,-208 123,-260 373,-260 373,-208 123,-208"/>
</g>
<!-- MaterialModule -->
<g id="node1" class="node">
<title>MaterialModule</title>
<polygon fill="#8dd3c7" stroke="#000000" points="361.4706,-122 358.4706,-126 337.4706,-126 334.4706,-122 254.5294,-122 254.5294,-86 361.4706,-86 361.4706,-122"/>
<text text-anchor="middle" x="308" y="-99.8" font-family="Times,serif" font-size="14.00" fill="#000000">MaterialModule</text>
</g>
<!-- CoreModule -->
<g id="node3" class="node">
<title>CoreModule</title>
<polygon fill="#8dd3c7" stroke="#000000" points="230.2619,-187 227.2619,-191 206.2619,-191 203.2619,-187 143.7381,-187 143.7381,-151 230.2619,-151 230.2619,-187"/>
<text text-anchor="middle" x="187" y="-164.8" font-family="Times,serif" font-size="14.00" fill="#000000">CoreModule</text>
</g>
<!-- MaterialModule&#45;&gt;CoreModule -->
<g id="edge1" class="edge">
<title>MaterialModule&#45;&gt;CoreModule</title>
<path fill="none" stroke="#000000" d="M325.9118,-122.0225C325.9118,-139.3734 325.9118,-163 325.9118,-163 325.9118,-163 240.5714,-163 240.5714,-163"/>
<polygon fill="#000000" stroke="#000000" points="240.5715,-159.5001 230.5714,-163 240.5714,-166.5001 240.5715,-159.5001"/>
</g>
<!-- AlgoliaModule -->
<g id="node2" class="node">
<title>AlgoliaModule</title>
<polygon fill="#8dd3c7" stroke="#000000" points="236.5438,-122 233.5438,-126 212.5438,-126 209.5438,-122 135.4562,-122 135.4562,-86 236.5438,-86 236.5438,-122"/>
<text text-anchor="middle" x="186" y="-99.8" font-family="Times,serif" font-size="14.00" fill="#000000">AlgoliaModule</text>
</g>
<!-- AlgoliaModule&#45;&gt;CoreModule -->
<g id="edge2" class="edge">
<title>AlgoliaModule&#45;&gt;CoreModule</title>
<path fill="none" stroke="#000000" d="M187,-122.1061C187,-122.1061 187,-140.991 187,-140.991"/>
<polygon fill="#000000" stroke="#000000" points="183.5001,-140.9909 187,-150.991 190.5001,-140.991 183.5001,-140.9909"/>
</g>
<!-- MaterialModule  -->
<g id="node4" class="node">
<title>MaterialModule </title>
<polygon fill="#fb8072" stroke="#000000" points="365.4716,-252 254.5284,-252 254.5284,-216 365.4716,-216 365.4716,-252"/>
<text text-anchor="middle" x="310" y="-229.8" font-family="Times,serif" font-size="14.00" fill="#000000">MaterialModule </text>
</g>
<!-- CoreModule&#45;&gt;MaterialModule  -->
<g id="edge3" class="edge">
<title>CoreModule&#45;&gt;MaterialModule </title>
<path fill="none" stroke="#000000" stroke-dasharray="5,2" d="M230.5252,-175C258.7668,-175 290.3382,-175 290.3382,-175 290.3382,-175 290.3382,-205.9775 290.3382,-205.9775"/>
<polygon fill="#000000" stroke="#000000" points="286.8383,-205.9774 290.3382,-215.9775 293.8383,-205.9775 286.8383,-205.9774"/>
</g>
<!-- AlgoliaModule  -->
<g id="node5" class="node">
<title>AlgoliaModule </title>
<polygon fill="#fb8072" stroke="#000000" points="236.5428,-252 131.4572,-252 131.4572,-216 236.5428,-216 236.5428,-252"/>
<text text-anchor="middle" x="184" y="-229.8" font-family="Times,serif" font-size="14.00" fill="#000000">AlgoliaModule </text>
</g>
<!-- CoreModule&#45;&gt;AlgoliaModule  -->
<g id="edge4" class="edge">
<title>CoreModule&#45;&gt;AlgoliaModule </title>
<path fill="none" stroke="#000000" stroke-dasharray="5,2" d="M187,-187.1061C187,-187.1061 187,-205.991 187,-205.991"/>
<polygon fill="#000000" stroke="#000000" points="183.5001,-205.9909 187,-215.991 190.5001,-205.991 183.5001,-205.9909"/>
</g>
</g>
</svg>
