<?xml version="1.0" encoding="UTF-8" standalone="no"?>
<!DOCTYPE svg PUBLIC "-//W3C//DTD SVG 1.1//EN"
 "http://www.w3.org/Graphics/SVG/1.1/DTD/svg11.dtd">
<!-- Generated by graphviz version 2.40.1 (20161225.0304)
 -->
<!-- Title: dependencies Pages: 1 -->
<svg width="504pt" height="284pt"
 viewBox="0.00 0.00 504.00 284.00" xmlns="http://www.w3.org/2000/svg" xmlns:xlink="http://www.w3.org/1999/xlink">
<g id="graph0" class="graph" transform="scale(1 1) rotate(0) translate(4 280)">
<title>dependencies</title>
<polygon fill="#ffffff" stroke="transparent" points="-4,4 -4,-280 500,-280 500,4 -4,4"/>
<text text-anchor="start" x="227.0091" y="-42.4" font-family="sans-serif" font-weight="bold" font-size="14.00" fill="#000000">Legend</text>
<polygon fill="#ffffb3" stroke="transparent" points="14,-10 14,-30 34,-30 34,-10 14,-10"/>
<text text-anchor="start" x="37.629" y="-15.4" font-family="sans-serif" font-size="14.00" fill="#000000"> &#160;Declarations</text>
<polygon fill="#8dd3c7" stroke="transparent" points="127,-10 127,-30 147,-30 147,-10 127,-10"/>
<text text-anchor="start" x="150.7251" y="-15.4" font-family="sans-serif" font-size="14.00" fill="#000000"> &#160;Module</text>
<polygon fill="#80b1d3" stroke="transparent" points="213,-10 213,-30 233,-30 233,-10 213,-10"/>
<text text-anchor="start" x="236.7812" y="-15.4" font-family="sans-serif" font-size="14.00" fill="#000000"> &#160;Bootstrap</text>
<polygon fill="#fdb462" stroke="transparent" points="310,-10 310,-30 330,-30 330,-10 310,-10"/>
<text text-anchor="start" x="333.6732" y="-15.4" font-family="sans-serif" font-size="14.00" fill="#000000"> &#160;Providers</text>
<polygon fill="#fb8072" stroke="transparent" points="406,-10 406,-30 426,-30 426,-10 406,-10"/>
<text text-anchor="start" x="429.7258" y="-15.4" font-family="sans-serif" font-size="14.00" fill="#000000"> &#160;Exports</text>
<g id="clust1" class="cluster">
<title>cluster_AppModule</title>
<polygon fill="none" stroke="#000000" stroke-dasharray="1,5" points="50.5,-70 50.5,-268 445.5,-268 445.5,-70 50.5,-70"/>
</g>
<g id="clust2" class="cluster">
<title>cluster_AppModule_declarations</title>
<polygon fill="none" stroke="#000000" points="315.5,-78 315.5,-130 437.5,-130 437.5,-78 315.5,-78"/>
</g>
<g id="clust4" class="cluster">
<title>cluster_AppModule_imports</title>
<polygon fill="none" stroke="#000000" points="58.5,-78 58.5,-130 307.5,-130 307.5,-78 58.5,-78"/>
</g>
<g id="clust6" class="cluster">
<title>cluster_AppModule_bootstrap</title>
<polygon fill="none" stroke="#000000" points="194.5,-208 194.5,-260 318.5,-260 318.5,-208 194.5,-208"/>
</g>
<!-- AppComponent -->
<g id="node1" class="node">
<title>AppComponent</title>
<polygon fill="#ffffb3" stroke="#000000" points="429.4399,-122 323.5601,-122 323.5601,-86 429.4399,-86 429.4399,-122"/>
<text text-anchor="middle" x="376.5" y="-99.8" font-family="Times,serif" font-size="14.00" fill="#000000">AppComponent</text>
</g>
<!-- AppModule -->
<g id="node2" class="node">
<title>AppModule</title>
<polygon fill="#8dd3c7" stroke="#000000" points="298.1571,-187 295.1571,-191 274.1571,-191 271.1571,-187 214.8429,-187 214.8429,-151 298.1571,-151 298.1571,-187"/>
<text text-anchor="middle" x="256.5" y="-164.8" font-family="Times,serif" font-size="14.00" fill="#000000">AppModule</text>
</g>
<!-- AppComponent&#45;&gt;AppModule -->
<g id="edge1" class="edge">
<title>AppComponent&#45;&gt;AppModule</title>
<path fill="none" stroke="#000000" d="M376.5,-122.1061C376.5,-141.3391 376.5,-169 376.5,-169 376.5,-169 308.4702,-169 308.4702,-169"/>
<polygon fill="#000000" stroke="#000000" points="308.4702,-165.5001 298.4702,-169 308.4701,-172.5001 308.4702,-165.5001"/>
</g>
<!-- AppComponent  -->
<g id="node5" class="node">
<title>AppComponent </title>
<polygon fill="#80b1d3" stroke="#000000" points="310.939,-252 202.061,-252 202.061,-216 310.939,-216 310.939,-252"/>
<text text-anchor="middle" x="256.5" y="-229.8" font-family="Times,serif" font-size="14.00" fill="#000000">AppComponent </text>
</g>
<!-- AppModule&#45;&gt;AppComponent  -->
<g id="edge4" class="edge">
<title>AppModule&#45;&gt;AppComponent </title>
<path fill="none" stroke="#000000" stroke-dasharray="1,5" d="M256.5,-187.1061C256.5,-187.1061 256.5,-205.991 256.5,-205.991"/>
<polygon fill="#000000" stroke="#000000" points="253.0001,-205.9909 256.5,-215.991 260.0001,-205.991 253.0001,-205.9909"/>
</g>
<!-- CoreModule -->
<g id="node3" class="node">
<title>CoreModule</title>
<polygon fill="#8dd3c7" stroke="#000000" points="299.7619,-122 296.7619,-126 275.7619,-126 272.7619,-122 213.2381,-122 213.2381,-86 299.7619,-86 299.7619,-122"/>
<text text-anchor="middle" x="256.5" y="-99.8" font-family="Times,serif" font-size="14.00" fill="#000000">CoreModule</text>
</g>
<!-- CoreModule&#45;&gt;AppModule -->
<g id="edge2" class="edge">
<title>CoreModule&#45;&gt;AppModule</title>
<path fill="none" stroke="#000000" d="M256.5,-122.1061C256.5,-122.1061 256.5,-140.991 256.5,-140.991"/>
<polygon fill="#000000" stroke="#000000" points="253.0001,-140.9909 256.5,-150.991 260.0001,-140.991 253.0001,-140.9909"/>
</g>
<!-- AppRoutingModule -->
<g id="node4" class="node">
<title>AppRoutingModule</title>
<polygon fill="#8dd3c7" stroke="#000000" points="194.7744,-122 191.7744,-126 170.7744,-126 167.7744,-122 66.2256,-122 66.2256,-86 194.7744,-86 194.7744,-122"/>
<text text-anchor="middle" x="130.5" y="-99.8" font-family="Times,serif" font-size="14.00" fill="#000000">AppRoutingModule</text>
</g>
<!-- AppRoutingModule&#45;&gt;AppModule -->
<g id="edge3" class="edge">
<title>AppRoutingModule&#45;&gt;AppModule</title>
<path fill="none" stroke="#000000" d="M130.5,-122.1061C130.5,-141.3391 130.5,-169 130.5,-169 130.5,-169 204.5438,-169 204.5438,-169"/>
<polygon fill="#000000" stroke="#000000" points="204.5439,-172.5001 214.5438,-169 204.5438,-165.5001 204.5439,-172.5001"/>
</g>
</g>
</svg>
