<?xml version="1.0" encoding="UTF-8" standalone="no"?>
<!DOCTYPE svg PUBLIC "-//W3C//DTD SVG 1.1//EN"
 "http://www.w3.org/Graphics/SVG/1.1/DTD/svg11.dtd">
<!-- Generated by graphviz version 2.40.1 (20161225.0304)
 -->
<!-- Title: dependencies Pages: 1 -->
<svg width="1499pt" height="211pt"
 viewBox="0.00 0.00 1499.00 211.00" xmlns="http://www.w3.org/2000/svg" xmlns:xlink="http://www.w3.org/1999/xlink">
<g id="graph0" class="graph" transform="scale(1 1) rotate(0) translate(4 207)">
<title>dependencies</title>
<polygon fill="#ffffff" stroke="transparent" points="-4,4 -4,-207 1495,-207 1495,4 -4,4"/>
<text text-anchor="start" x="724.5091" y="-42.4" font-family="sans-serif" font-weight="bold" font-size="14.00" fill="#000000">Legend</text>
<polygon fill="#ffffb3" stroke="transparent" points="511.5,-10 511.5,-30 531.5,-30 531.5,-10 511.5,-10"/>
<text text-anchor="start" x="535.129" y="-15.4" font-family="sans-serif" font-size="14.00" fill="#000000"> &#160;Declarations</text>
<polygon fill="#8dd3c7" stroke="transparent" points="624.5,-10 624.5,-30 644.5,-30 644.5,-10 624.5,-10"/>
<text text-anchor="start" x="648.2251" y="-15.4" font-family="sans-serif" font-size="14.00" fill="#000000"> &#160;Module</text>
<polygon fill="#80b1d3" stroke="transparent" points="710.5,-10 710.5,-30 730.5,-30 730.5,-10 710.5,-10"/>
<text text-anchor="start" x="734.2812" y="-15.4" font-family="sans-serif" font-size="14.00" fill="#000000"> &#160;Bootstrap</text>
<polygon fill="#fdb462" stroke="transparent" points="807.5,-10 807.5,-30 827.5,-30 827.5,-10 807.5,-10"/>
<text text-anchor="start" x="831.1732" y="-15.4" font-family="sans-serif" font-size="14.00" fill="#000000"> &#160;Providers</text>
<polygon fill="#fb8072" stroke="transparent" points="903.5,-10 903.5,-30 923.5,-30 923.5,-10 903.5,-10"/>
<text text-anchor="start" x="927.2258" y="-15.4" font-family="sans-serif" font-size="14.00" fill="#000000"> &#160;Exports</text>
<g id="clust1" class="cluster">
<title>cluster_SearchUiModule</title>
<polygon fill="none" stroke="#000000" stroke-dasharray="1,5" points="8,-70 8,-195 1483,-195 1483,-70 8,-70"/>
</g>
<g id="clust2" class="cluster">
<title>cluster_SearchUiModule_declarations</title>
<polygon fill="none" stroke="#000000" points="571,-78 571,-130 1475,-130 1475,-78 571,-78"/>
</g>
<g id="clust9" class="cluster">
<title>cluster_SearchUiModule_imports</title>
<polygon fill="none" stroke="#000000" points="172,-78 172,-130 563,-130 563,-78 172,-78"/>
</g>
<g id="clust12" class="cluster">
<title>cluster_SearchUiModule_providers</title>
<polygon fill="none" stroke="#000000" points="16,-78 16,-130 164,-130 164,-78 16,-78"/>
</g>
<!-- SearchComponent -->
<g id="node1" class="node">
<title>SearchComponent</title>
<polygon fill="#ffffb3" stroke="#000000" points="1466.9201,-122 1347.0799,-122 1347.0799,-86 1466.9201,-86 1466.9201,-122"/>
<text text-anchor="middle" x="1407" y="-99.8" font-family="Times,serif" font-size="14.00" fill="#000000">SearchComponent</text>
</g>
<!-- SearchUiModule -->
<g id="node7" class="node">
<title>SearchUiModule</title>
<polygon fill="#8dd3c7" stroke="#000000" points="781.6346,-187 778.6346,-191 757.6346,-191 754.6346,-187 670.3654,-187 670.3654,-151 781.6346,-151 781.6346,-187"/>
<text text-anchor="middle" x="726" y="-164.8" font-family="Times,serif" font-size="14.00" fill="#000000">SearchUiModule</text>
</g>
<!-- SearchComponent&#45;&gt;SearchUiModule -->
<g id="edge1" class="edge">
<title>SearchComponent&#45;&gt;SearchUiModule</title>
<path fill="none" stroke="#000000" d="M1407,-122.0109C1407,-144.4852 1407,-180 1407,-180 1407,-180 791.7291,-180 791.7291,-180"/>
<polygon fill="#000000" stroke="#000000" points="791.7291,-176.5001 781.7291,-180 791.7291,-183.5001 791.7291,-176.5001"/>
</g>
<!-- SearchInputComponent -->
<g id="node2" class="node">
<title>SearchInputComponent</title>
<polygon fill="#ffffb3" stroke="#000000" points="1329.4706,-122 1180.5294,-122 1180.5294,-86 1329.4706,-86 1329.4706,-122"/>
<text text-anchor="middle" x="1255" y="-99.8" font-family="Times,serif" font-size="14.00" fill="#000000">SearchInputComponent</text>
</g>
<!-- SearchInputComponent&#45;&gt;SearchUiModule -->
<g id="edge2" class="edge">
<title>SearchInputComponent&#45;&gt;SearchUiModule</title>
<path fill="none" stroke="#000000" d="M1255,-122.1289C1255,-142.5724 1255,-173 1255,-173 1255,-173 792.1114,-173 792.1114,-173"/>
<polygon fill="#000000" stroke="#000000" points="792.1115,-169.5001 782.1114,-173 792.1114,-176.5001 792.1115,-169.5001"/>
</g>
<!-- SearchResultComponent -->
<g id="node3" class="node">
<title>SearchResultComponent</title>
<polygon fill="#ffffb3" stroke="#000000" points="1162.6965,-122 1007.3035,-122 1007.3035,-86 1162.6965,-86 1162.6965,-122"/>
<text text-anchor="middle" x="1085" y="-99.8" font-family="Times,serif" font-size="14.00" fill="#000000">SearchResultComponent</text>
</g>
<!-- SearchResultComponent&#45;&gt;SearchUiModule -->
<g id="edge3" class="edge">
<title>SearchResultComponent&#45;&gt;SearchUiModule</title>
<path fill="none" stroke="#000000" d="M1085,-122.2667C1085,-140.5552 1085,-166 1085,-166 1085,-166 791.6999,-166 791.6999,-166"/>
<polygon fill="#000000" stroke="#000000" points="791.6999,-162.5001 781.6999,-166 791.6998,-169.5001 791.6999,-162.5001"/>
</g>
<!-- RatingDirective -->
<g id="node4" class="node">
<title>RatingDirective</title>
<polygon fill="#ffffb3" stroke="#000000" points="989.916,-122 884.084,-122 884.084,-86 989.916,-86 989.916,-122"/>
<text text-anchor="middle" x="937" y="-99.8" font-family="Times,serif" font-size="14.00" fill="#000000">RatingDirective</text>
</g>
<!-- RatingDirective&#45;&gt;SearchUiModule -->
<g id="edge4" class="edge">
<title>RatingDirective&#45;&gt;SearchUiModule</title>
<path fill="none" stroke="#000000" d="M937,-122.0091C937,-138.0494 937,-159 937,-159 937,-159 791.7138,-159 791.7138,-159"/>
<polygon fill="#000000" stroke="#000000" points="791.7138,-155.5001 781.7138,-159 791.7137,-162.5001 791.7138,-155.5001"/>
</g>
<!-- FreePriceLabelPipe -->
<g id="node5" class="node">
<title>FreePriceLabelPipe</title>
<polygon fill="#ffffb3" stroke="#000000" points="866.3962,-122 739.6038,-122 739.6038,-86 866.3962,-86 866.3962,-122"/>
<text text-anchor="middle" x="803" y="-99.8" font-family="Times,serif" font-size="14.00" fill="#000000">FreePriceLabelPipe</text>
</g>
<!-- FreePriceLabelPipe&#45;&gt;SearchUiModule -->
<g id="edge5" class="edge">
<title>FreePriceLabelPipe&#45;&gt;SearchUiModule</title>
<path fill="none" stroke="#000000" d="M760.8096,-122.1061C760.8096,-122.1061 760.8096,-140.991 760.8096,-140.991"/>
<polygon fill="#000000" stroke="#000000" points="757.3097,-140.9909 760.8096,-150.991 764.3097,-140.991 757.3097,-140.9909"/>
</g>
<!-- InfiniteScrollDirective -->
<g id="node6" class="node">
<title>InfiniteScrollDirective</title>
<polygon fill="#ffffb3" stroke="#000000" points="721.2297,-122 578.7703,-122 578.7703,-86 721.2297,-86 721.2297,-122"/>
<text text-anchor="middle" x="650" y="-99.8" font-family="Times,serif" font-size="14.00" fill="#000000">InfiniteScrollDirective</text>
</g>
<!-- InfiniteScrollDirective&#45;&gt;SearchUiModule -->
<g id="edge6" class="edge">
<title>InfiniteScrollDirective&#45;&gt;SearchUiModule</title>
<path fill="none" stroke="#000000" d="M695.7739,-122.1061C695.7739,-122.1061 695.7739,-140.991 695.7739,-140.991"/>
<polygon fill="#000000" stroke="#000000" points="692.2739,-140.9909 695.7739,-150.991 699.2739,-140.991 692.2739,-140.9909"/>
</g>
<!-- CoreModule -->
<g id="node8" class="node">
<title>CoreModule</title>
<polygon fill="#8dd3c7" stroke="#000000" points="555.2619,-122 552.2619,-126 531.2619,-126 528.2619,-122 468.7381,-122 468.7381,-86 555.2619,-86 555.2619,-122"/>
<text text-anchor="middle" x="512" y="-99.8" font-family="Times,serif" font-size="14.00" fill="#000000">CoreModule</text>
</g>
<!-- CoreModule&#45;&gt;SearchUiModule -->
<g id="edge7" class="edge">
<title>CoreModule&#45;&gt;SearchUiModule</title>
<path fill="none" stroke="#000000" d="M512,-122.0091C512,-138.0494 512,-159 512,-159 512,-159 660.3327,-159 660.3327,-159"/>
<polygon fill="#000000" stroke="#000000" points="660.3327,-162.5001 670.3327,-159 660.3326,-155.5001 660.3327,-162.5001"/>
</g>
<!-- SearchUiRoutingModule -->
<g id="node9" class="node">
<title>SearchUiRoutingModule</title>
<polygon fill="#8dd3c7" stroke="#000000" points="450.252,-122 447.252,-126 426.252,-126 423.252,-122 293.748,-122 293.748,-86 450.252,-86 450.252,-122"/>
<text text-anchor="middle" x="372" y="-99.8" font-family="Times,serif" font-size="14.00" fill="#000000">SearchUiRoutingModule</text>
</g>
<!-- SearchUiRoutingModule&#45;&gt;SearchUiModule -->
<g id="edge8" class="edge">
<title>SearchUiRoutingModule&#45;&gt;SearchUiModule</title>
<path fill="none" stroke="#000000" d="M372,-122.2667C372,-140.5552 372,-166 372,-166 372,-166 660.2981,-166 660.2981,-166"/>
<polygon fill="#000000" stroke="#000000" points="660.2981,-169.5001 670.2981,-166 660.298,-162.5001 660.2981,-169.5001"/>
</g>
<!-- FacetsModule -->
<g id="node10" class="node">
<title>FacetsModule</title>
<polygon fill="#8dd3c7" stroke="#000000" points="275.8119,-122 272.8119,-126 251.8119,-126 248.8119,-122 180.1881,-122 180.1881,-86 275.8119,-86 275.8119,-122"/>
<text text-anchor="middle" x="228" y="-99.8" font-family="Times,serif" font-size="14.00" fill="#000000">FacetsModule</text>
</g>
<!-- FacetsModule&#45;&gt;SearchUiModule -->
<g id="edge9" class="edge">
<title>FacetsModule&#45;&gt;SearchUiModule</title>
<path fill="none" stroke="#000000" d="M228,-122.1289C228,-142.5724 228,-173 228,-173 228,-173 660.3227,-173 660.3227,-173"/>
<polygon fill="#000000" stroke="#000000" points="660.3227,-176.5001 670.3227,-173 660.3226,-169.5001 660.3227,-176.5001"/>
</g>
<!-- SearchService -->
<g id="node11" class="node">
<title>SearchService</title>
<ellipse fill="#fdb462" stroke="#000000" cx="90" cy="-104" rx="66.0281" ry="18"/>
<text text-anchor="middle" x="90" y="-99.8" font-family="Times,serif" font-size="14.00" fill="#000000">SearchService</text>
</g>
<!-- SearchService&#45;&gt;SearchUiModule -->
<g id="edge10" class="edge">
<title>SearchService&#45;&gt;SearchUiModule</title>
<path fill="none" stroke="#000000" d="M90,-122.0109C90,-144.4852 90,-180 90,-180 90,-180 660.1167,-180 660.1167,-180"/>
<polygon fill="#000000" stroke="#000000" points="660.1167,-183.5001 670.1167,-180 660.1166,-176.5001 660.1167,-183.5001"/>
</g>
</g>
</svg>
