<?xml version="1.0" encoding="UTF-8" standalone="no"?>
<!DOCTYPE svg PUBLIC "-//W3C//DTD SVG 1.1//EN"
 "http://www.w3.org/Graphics/SVG/1.1/DTD/svg11.dtd">
<!-- Generated by graphviz version 2.40.1 (20161225.0304)
 -->
<!-- Title: dependencies Pages: 1 -->
<svg width="504pt" height="284pt"
 viewBox="0.00 0.00 504.00 284.00" xmlns="http://www.w3.org/2000/svg" xmlns:xlink="http://www.w3.org/1999/xlink">
<g id="graph0" class="graph" transform="scale(1 1) rotate(0) translate(4 280)">
<title>dependencies</title>
<polygon fill="#ffffff" stroke="transparent" points="-4,4 -4,-280 500,-280 500,4 -4,4"/>
<text text-anchor="start" x="227.0091" y="-42.4" font-family="sans-serif" font-weight="bold" font-size="14.00" fill="#000000">Legend</text>
<polygon fill="#ffffb3" stroke="transparent" points="14,-10 14,-30 34,-30 34,-10 14,-10"/>
<text text-anchor="start" x="37.629" y="-15.4" font-family="sans-serif" font-size="14.00" fill="#000000"> &#160;Declarations</text>
<polygon fill="#8dd3c7" stroke="transparent" points="127,-10 127,-30 147,-30 147,-10 127,-10"/>
<text text-anchor="start" x="150.7251" y="-15.4" font-family="sans-serif" font-size="14.00" fill="#000000"> &#160;Module</text>
<polygon fill="#80b1d3" stroke="transparent" points="213,-10 213,-30 233,-30 233,-10 213,-10"/>
<text text-anchor="start" x="236.7812" y="-15.4" font-family="sans-serif" font-size="14.00" fill="#000000"> &#160;Bootstrap</text>
<polygon fill="#fdb462" stroke="transparent" points="310,-10 310,-30 330,-30 330,-10 310,-10"/>
<text text-anchor="start" x="333.6732" y="-15.4" font-family="sans-serif" font-size="14.00" fill="#000000"> &#160;Providers</text>
<polygon fill="#fb8072" stroke="transparent" points="406,-10 406,-30 426,-30 426,-10 406,-10"/>
<text text-anchor="start" x="429.7258" y="-15.4" font-family="sans-serif" font-size="14.00" fill="#000000"> &#160;Exports</text>
<g id="clust1" class="cluster">
<title>cluster_FacetsModule</title>
<polygon fill="none" stroke="#000000" stroke-dasharray="1,5" points="101,-70 101,-268 395,-268 395,-70 101,-70"/>
</g>
<g id="clust2" class="cluster">
<title>cluster_FacetsModule_declarations</title>
<polygon fill="none" stroke="#000000" points="239,-78 239,-130 387,-130 387,-78 239,-78"/>
</g>
<g id="clust4" class="cluster">
<title>cluster_FacetsModule_imports</title>
<polygon fill="none" stroke="#000000" points="109,-78 109,-130 231,-130 231,-78 109,-78"/>
</g>
<g id="clust5" class="cluster">
<title>cluster_FacetsModule_exports</title>
<polygon fill="none" stroke="#000000" points="172,-208 172,-260 324,-260 324,-208 172,-208"/>
</g>
<!-- CategoryComponent -->
<g id="node1" class="node">
<title>CategoryComponent</title>
<polygon fill="#ffffb3" stroke="#000000" points="379.1499,-122 246.8501,-122 246.8501,-86 379.1499,-86 379.1499,-122"/>
<text text-anchor="middle" x="313" y="-99.8" font-family="Times,serif" font-size="14.00" fill="#000000">CategoryComponent</text>
</g>
<!-- FacetsModule -->
<g id="node2" class="node">
<title>FacetsModule</title>
<polygon fill="#8dd3c7" stroke="#000000" points="295.8119,-187 292.8119,-191 271.8119,-191 268.8119,-187 200.1881,-187 200.1881,-151 295.8119,-151 295.8119,-187"/>
<text text-anchor="middle" x="248" y="-164.8" font-family="Times,serif" font-size="14.00" fill="#000000">FacetsModule</text>
</g>
<!-- CategoryComponent&#45;&gt;FacetsModule -->
<g id="edge1" class="edge">
<title>CategoryComponent&#45;&gt;FacetsModule</title>
<path fill="none" stroke="#000000" d="M271.1655,-122.1061C271.1655,-122.1061 271.1655,-140.991 271.1655,-140.991"/>
<polygon fill="#000000" stroke="#000000" points="267.6656,-140.9909 271.1655,-150.991 274.6656,-140.991 267.6656,-140.9909"/>
</g>
<!-- CategoryComponent  -->
<g id="node4" class="node">
<title>CategoryComponent </title>
<polygon fill="#fb8072" stroke="#000000" points="316.1495,-252 179.8505,-252 179.8505,-216 316.1495,-216 316.1495,-252"/>
<text text-anchor="middle" x="248" y="-229.8" font-family="Times,serif" font-size="14.00" fill="#000000">CategoryComponent </text>
</g>
<!-- FacetsModule&#45;&gt;CategoryComponent  -->
<g id="edge3" class="edge">
<title>FacetsModule&#45;&gt;CategoryComponent </title>
<path fill="none" stroke="#000000" stroke-dasharray="5,2" d="M248,-187.1061C248,-187.1061 248,-205.991 248,-205.991"/>
<polygon fill="#000000" stroke="#000000" points="244.5001,-205.9909 248,-215.991 251.5001,-205.991 244.5001,-205.9909"/>
</g>
<!-- MaterialModule -->
<g id="node3" class="node">
<title>MaterialModule</title>
<polygon fill="#8dd3c7" stroke="#000000" points="223.4706,-122 220.4706,-126 199.4706,-126 196.4706,-122 116.5294,-122 116.5294,-86 223.4706,-86 223.4706,-122"/>
<text text-anchor="middle" x="170" y="-99.8" font-family="Times,serif" font-size="14.00" fill="#000000">MaterialModule</text>
</g>
<!-- MaterialModule&#45;&gt;FacetsModule -->
<g id="edge2" class="edge">
<title>MaterialModule&#45;&gt;FacetsModule</title>
<path fill="none" stroke="#000000" d="M211.9148,-122.1061C211.9148,-122.1061 211.9148,-140.991 211.9148,-140.991"/>
<polygon fill="#000000" stroke="#000000" points="208.4149,-140.9909 211.9148,-150.991 215.4149,-140.991 208.4149,-140.9909"/>
</g>
</g>
</svg>
